<svg width="33" height="33" viewBox="0 0 33 33" fill="none" xmlns="http://www.w3.org/2000/svg">
<path d="M10.6747 0.5C11.3342 0.5 11.8523 1.02408 11.8523 1.65607C11.8523 2.1185 12.2448 2.48844 12.7159 2.48844H14.2704C16.6413 2.50385 18.5726 4.39981 18.5883 6.71195V7.00482C20.08 7.00482 21.5716 7.03565 23.079 7.05106C28.5275 7.05106 32.5 10.9355 32.5 16.2996V23.1898C32.5 28.5539 28.5275 32.4383 23.079 32.4383C20.8965 32.4846 18.7139 32.5 16.5157 32.5C14.3175 32.5 12.1035 32.4846 9.921 32.4383C4.47252 32.4383 0.5 28.5539 0.5 23.1898V16.2996C0.5 10.9355 4.47252 7.05106 9.9367 7.05106C11.9936 7.02023 14.0976 6.9894 16.2331 6.9894V6.72736C16.2331 5.66378 15.3381 4.80058 14.2704 4.80058H12.7159C10.9416 4.80058 9.49706 3.38247 9.49706 1.65607C9.49706 1.02408 10.0309 0.5 10.6747 0.5ZM11.8366 15.8064C11.1771 15.8064 10.659 16.3304 10.659 16.9624V18.5809H8.9946C8.35083 18.5809 7.81698 19.105 7.81698 19.737C7.81698 20.3844 8.35083 20.8931 8.9946 20.8931H10.659V22.527C10.659 23.159 11.1771 23.683 11.8366 23.683C12.4804 23.683 13.0142 23.159 13.0142 22.527V20.8931H14.6629C15.3067 20.8931 15.8405 20.3844 15.8405 19.737C15.8405 19.105 15.3067 18.5809 14.6629 18.5809H13.0142V16.9624C13.0142 16.3304 12.4804 15.8064 11.8366 15.8064ZM24.1781 21.2784H24.0211C23.3601 21.2784 22.8435 21.8025 22.8435 22.4345C22.8435 23.0819 23.3601 23.5906 24.0211 23.5906H24.1781C24.8219 23.5906 25.3557 23.0819 25.3557 22.4345C25.3557 21.8025 24.8219 21.2784 24.1781 21.2784ZM21.4931 15.9759H21.3361C20.6766 15.9759 20.1585 16.5 20.1585 17.132C20.1585 17.7794 20.6766 18.2881 21.3361 18.2881H21.4931C22.1369 18.2881 22.6708 17.7794 22.6708 17.132C22.6708 16.5 22.1369 15.9759 21.4931 15.9759Z" fill="#AA00FF"/>
</svg>
