<svg width="39" height="40" viewBox="0 0 39 40" fill="none" xmlns="http://www.w3.org/2000/svg">
<path d="M10.081 21.5398H2.06301C1.21046 21.5398 0.5 20.8598 0.5 19.9998C0.5 19.1598 1.21046 18.4598 2.06301 18.4598H10.081L10.0817 8.9C10.0817 4 14.2122 0 19.2722 0H29.3508C34.3901 0 38.5 4 38.5 8.88V31.12C38.5 36.02 34.3901 40 29.3095 40H19.2515C14.2122 40 10.0817 36.02 10.0817 31.14V21.54H22.8864L19.582 24.74C18.9624 25.34 18.9624 26.32 19.582 26.92C19.8918 27.22 20.3048 27.36 20.7179 27.36C21.1103 27.36 21.5233 27.22 21.8331 26.92L27.8638 21.1C28.1736 20.82 28.3388 20.42 28.3388 20C28.3388 19.6 28.1736 19.2 27.8638 18.92L21.8331 13.1C21.2135 12.5 20.2016 12.5 19.582 13.1C18.9624 13.7 18.9624 14.68 19.582 15.28L22.8864 18.46H10.0817L10.081 21.5398Z" fill="white"/>
</svg>
