<svg width="39" height="40" viewBox="0 0 39 40" fill="none" xmlns="http://www.w3.org/2000/svg">
<path d="M20.9342 0.000200272C22.4467 0.000200272 23.8162 0.8402 24.5724 2.0802C24.9403 2.6802 25.1856 3.4202 25.1243 4.2002C25.0834 4.8002 25.2673 5.4002 25.5944 5.9602C26.6368 7.6602 28.9464 8.3002 30.745 7.3402C32.7685 6.1802 35.3234 6.8802 36.4884 8.8602L37.8579 11.2202C39.0433 13.2002 38.3893 15.7402 36.3454 16.8802C34.608 17.9002 33.9949 20.1602 35.0373 21.8802C35.3643 22.4202 35.7322 22.8802 36.3045 23.1602C37.0199 23.5402 37.5717 24.1402 37.9601 24.7402C38.7163 25.9802 38.655 27.5002 37.9192 28.8402L36.4884 31.2402C35.7322 32.5202 34.3219 33.3202 32.8707 33.3202C32.1553 33.3202 31.3582 33.1202 30.7042 32.7202C30.1727 32.3802 29.5596 32.2602 28.9055 32.2602C26.882 32.2602 25.1856 33.9202 25.1243 35.9002C25.1243 38.2002 23.2439 40.0002 20.8934 40.0002H18.1136C15.7427 40.0002 13.8623 38.2002 13.8623 35.9002C13.8214 33.9202 12.125 32.2602 10.1015 32.2602C9.42701 32.2602 8.81383 32.3802 8.30285 32.7202C7.6488 33.1202 6.83123 33.3202 6.1363 33.3202C4.66468 33.3202 3.25438 32.5202 2.49813 31.2402L1.08783 28.8402C0.331585 27.5402 0.290707 25.9802 1.04696 24.7402C1.37398 24.1402 1.98716 23.5402 2.68209 23.1602C3.25438 22.8802 3.62229 22.4202 3.96975 21.8802C4.99171 20.1602 4.37854 17.9002 2.64121 16.8802C0.617733 15.7402 -0.0363195 13.2002 1.12871 11.2202L2.49813 8.8602C3.68361 6.8802 6.21806 6.1802 8.26197 7.3402C10.0402 8.3002 12.3498 7.6602 13.3922 5.9602C13.7192 5.4002 13.9032 4.8002 13.8623 4.2002C13.8214 3.4202 14.0463 2.6802 14.4346 2.0802C15.1908 0.8402 16.5603 0.0402003 18.0523 0.000200272H20.9342ZM19.5239 14.3602C16.315 14.3602 13.7192 16.8802 13.7192 20.0202C13.7192 23.1602 16.315 25.6602 19.5239 25.6602C22.7329 25.6602 25.2673 23.1602 25.2673 20.0202C25.2673 16.8802 22.7329 14.3602 19.5239 14.3602Z" fill="rgb(156 163 175)"/>
</svg>
