<svg width="49" height="48" viewBox="0 0 49 48" fill="none" xmlns="http://www.w3.org/2000/svg">
<path d="M23.4855 4C28.4506 4 32.5 7.98 32.5 12.88V22.46H20.2907C19.4157 22.46 18.7238 23.14 18.7238 24C18.7238 24.84 19.4157 25.54 20.2907 25.54H32.5V35.1C32.5 40 28.4506 44 23.4448 44H13.5349C8.54942 44 4.5 40.02 4.5 35.12V12.9C4.5 7.98 8.56977 4 13.5552 4H23.4855ZM37.5804 17.1004C38.1804 16.4804 39.1604 16.4804 39.7604 17.0804L45.6004 22.9004C45.9004 23.2004 46.0604 23.5804 46.0604 24.0004C46.0604 24.4004 45.9004 24.8004 45.6004 25.0804L39.7604 30.9004C39.4604 31.2004 39.0604 31.3604 38.6804 31.3604C38.2804 31.3604 37.8804 31.2004 37.5804 30.9004C36.9804 30.3004 36.9804 29.3204 37.5804 28.7204L40.7804 25.5404H32.5004V22.4604H40.7804L37.5804 19.2804C36.9804 18.6804 36.9804 17.7004 37.5804 17.1004Z" fill="rgb(209 213 219)"/>
</svg>

